<svg width="512" height="512" viewBox="0 0 512 512" fill="none" xmlns="http://www.w3.org/2000/svg">
<path d="M311.334 267.427C304.115 263.364 294.966 265.927 290.905 273.147C270.755 308.97 248.984 327.994 226.199 329.69C192.941 332.179 165.255 297.131 164.931 296.718C159.874 290.177 150.478 288.96 143.918 294.001C137.35 299.052 136.12 308.47 141.171 315.039C142.627 316.933 176.16 359.82 222.796 359.82C224.584 359.82 226.393 359.757 228.218 359.626C261.73 357.224 291.618 333.077 317.054 287.857C321.116 280.636 318.555 271.489 311.334 267.427Z" fill="#BBDCFF"/>
<path d="M462.995 216.496H238.973C230.688 216.496 223.972 223.213 223.972 231.498V280.502C223.972 288.787 230.688 295.504 238.973 295.504H462.995C471.28 295.504 477.996 288.787 477.996 280.502V231.498C477.996 223.213 471.28 216.496 462.995 216.496Z" fill="#FFE569"/>
<path d="M462.995 216.496H351.984V295.504H462.995C471.28 295.504 477.996 288.787 477.996 280.502V231.497C477.996 223.213 471.28 216.496 462.995 216.496ZM496.998 137.488H270.976C262.691 137.488 255.975 144.205 255.975 152.49V201.495C255.975 209.779 262.691 216.496 270.976 216.496H496.998C505.283 216.496 512 209.779 512 201.495V152.49C512 144.205 505.283 137.488 496.998 137.488Z" fill="#FFC739"/>
<path d="M496.998 137.488H383.987V216.496H496.998C505.283 216.496 512 209.779 512 201.495V152.49C512 144.205 505.283 137.488 496.998 137.488Z" fill="#FF9400"/>
<path d="M132.169 215.777C130.781 213.834 128.949 212.25 126.826 211.157C124.703 210.065 122.349 209.495 119.962 209.495H91.0358C86.3784 209.495 81.9849 211.658 79.1447 215.35C77.2585 217.802 32.9521 276.458 32.9521 368.511V464.52C32.9521 472.805 39.6688 479.521 47.9536 479.521H159.965C168.249 479.521 174.966 472.805 174.966 464.52V368.511C174.967 276.75 133.916 218.224 132.169 215.777Z" fill="#FF641A"/>
<path d="M119.962 209.495H103.96V479.521H159.965C168.25 479.521 174.967 472.805 174.967 464.52V368.511C174.967 276.75 133.916 218.224 132.169 215.777C130.781 213.834 128.949 212.25 126.826 211.157C124.703 210.065 122.349 209.495 119.962 209.495Z" fill="#F03800"/>
<path d="M176.854 63.276C157.331 43.4161 131.445 32.479 103.96 32.479C76.4605 32.479 50.4249 43.3871 30.648 63.193C10.8851 82.9869 0 109.034 0 136.538C0 193.311 46.6365 239.498 103.96 239.498C160.733 239.498 206.92 193.311 206.92 136.538C206.92 109.017 196.243 82.9989 176.854 63.276Z" fill="#FFCEBF"/>
<path d="M206.92 136.538C206.92 109.017 196.242 82.9989 176.854 63.276C157.331 43.4161 131.445 32.479 103.96 32.479V239.499C160.733 239.498 206.92 193.311 206.92 136.538Z" fill="#FFB99C"/>
<path d="M193.415 85.2482C175.002 52.699 140.725 32.478 103.96 32.478C76.4615 32.478 50.4259 43.3861 30.649 63.194C10.8851 82.989 0 109.036 0 136.538C0 137.406 0.0130013 138.26 0.0360035 139.115C0.0979179 141.394 0.678192 143.628 1.73276 145.649C2.78733 147.669 4.28847 149.423 6.12217 150.777C7.95588 152.131 10.0739 153.049 12.3155 153.461C14.5571 153.874 16.8633 153.771 19.0589 153.159L184.385 107.084C186.579 106.473 188.604 105.37 190.309 103.86C192.013 102.35 193.351 100.471 194.221 98.3666C195.091 96.2622 195.471 93.9873 195.331 91.7144C195.191 89.4415 194.536 87.2302 193.415 85.2482Z" fill="#FF641A"/>
<path d="M184.385 107.084C186.578 106.473 188.604 105.37 190.308 103.86C192.013 102.35 193.35 100.471 194.221 98.3666C195.091 96.2622 195.471 93.9873 195.331 91.7144C195.191 89.4415 194.536 87.2302 193.415 85.2482C175.002 52.699 140.725 32.478 103.96 32.478V129.498L184.385 107.084Z" fill="#F03800"/>
<path d="M228.002 94.9341L201.2 102.405L2.25022 157.84C0.770075 150.97 0 143.839 0 136.538C0 133.408 0.140014 130.298 0.430042 127.207L186.978 75.2122L219.941 66.0313C227.922 63.8111 236.203 68.4715 238.423 76.4523C240.643 84.4331 235.983 92.7139 228.002 94.9341Z" fill="#537983"/>
<path d="M219.941 66.0313L186.978 75.2122L103.96 98.3515V129.501L201.199 102.406L228.002 94.9351C235.982 92.7149 240.643 84.4341 238.423 76.4533C236.203 68.4715 227.922 63.8111 219.941 66.0313Z" fill="#3E5959"/>
</svg>
